<svg width="208" height="203" viewBox="0 0 208 203" fill="none" xmlns="http://www.w3.org/2000/svg">
<path d="M196 100.5C196 150.482 155.482 191 105.5 191C55.5182 191 15 150.482 15 100.5C15 50.5182 55.5182 10 105.5 10C155.482 10 196 50.5182 196 100.5Z" fill="white" stroke="black" stroke-width="4" stroke-linejoin="round"/>
<path d="M58.3141 131.179C56.3997 131.326 54.6401 131.15 53.035 130.651C51.4548 130.127 50.087 129.335 48.9315 128.275C47.8008 127.19 46.9282 125.893 46.3137 124.386C45.6992 122.878 45.4253 121.189 45.492 119.318C45.5586 117.447 45.9547 115.707 46.6803 114.096C47.4059 112.486 48.3874 111.059 49.6249 109.816C50.8632 108.549 52.2952 107.542 53.9207 106.796C55.571 106.023 57.3533 105.564 59.2677 105.417C61.206 105.268 62.9768 105.467 64.5801 106.014C66.2082 106.535 67.5735 107.399 68.676 108.606L66.2621 111.052C65.3408 110.118 64.2904 109.457 63.111 109.069C61.9325 108.657 60.6612 108.503 59.2972 108.608C57.8854 108.716 56.5607 109.057 55.3232 109.63C54.1096 110.202 53.0447 110.953 52.1286 111.885C51.2124 112.816 50.4817 113.9 49.9364 115.138C49.416 116.35 49.131 117.652 49.0814 119.043C49.0319 120.434 49.225 121.711 49.6609 122.873C50.1215 124.01 50.7792 124.976 51.6338 125.772C52.4885 126.567 53.5055 127.159 54.6849 127.547C55.8882 127.933 57.1958 128.072 58.6077 127.964C59.9717 127.859 61.2605 127.521 62.474 126.95C63.6885 126.354 64.7926 125.504 65.7866 124.399L68.039 126.487C66.8442 127.87 65.4093 128.961 63.7342 129.759C62.0831 130.556 60.2764 131.029 58.3141 131.179Z" fill="black"/>
<path d="M56.6253 93.5295C54.7056 93.565 52.9355 93.2746 51.3149 92.6582C49.7183 92.0414 48.3513 91.1689 47.2139 90.0408C46.0778 88.8887 45.216 87.5401 44.6286 85.9948C44.0413 84.4495 43.7976 82.7543 43.8977 80.909C43.9978 79.0637 44.4261 77.356 45.1825 75.7858C45.9388 74.2157 46.9481 72.8443 48.2103 71.6718C49.4738 70.4753 50.939 69.5385 52.6058 68.8612C54.2726 68.1839 56.0779 67.8273 58.0215 67.7913C59.9412 67.7558 61.6873 68.0467 63.26 68.6639C64.8579 69.2568 66.2249 70.1293 67.361 71.2813C68.5224 72.409 69.3848 73.7457 69.9482 75.2914C70.5355 76.8367 70.7785 78.5439 70.6771 80.4132C70.5757 82.2824 70.1468 84.0021 69.3905 85.5723C68.6581 87.142 67.6481 88.5253 66.3606 89.7222C65.0984 90.8948 63.6339 91.8196 61.9671 92.4969C60.3256 93.1498 58.545 93.4939 56.6253 93.5295ZM56.7989 90.3302C58.1906 90.3044 59.4874 90.041 60.6892 89.5399C61.915 89.0384 62.9832 88.3483 63.8939 87.4696C64.8298 86.5665 65.5696 85.5233 66.1132 84.3402C66.6808 83.1565 67.0023 81.8698 67.0777 80.4798C67.1532 79.0899 66.9707 77.8124 66.5305 76.6475C66.1143 75.4821 65.4857 74.4762 64.6446 73.6299C63.8289 72.7592 62.8341 72.0953 61.6603 71.6383C60.5105 71.1807 59.2397 70.9649 57.848 70.9906C56.4322 71.0168 55.1114 71.2807 53.8856 71.7822C52.6838 72.2833 51.615 72.9854 50.679 73.8885C49.7444 74.7677 48.9932 75.7991 48.4256 76.9827C47.882 78.1658 47.5725 79.4524 47.4971 80.8423C47.4217 82.2323 47.5921 83.51 48.0083 84.6754C48.4485 85.8403 49.0885 86.8579 49.9283 87.7282C50.7693 88.5745 51.7647 89.2264 52.9145 89.6839C54.0883 90.141 55.3831 90.3564 56.7989 90.3302Z" fill="black"/>
<path d="M105.257 93.8282C101.948 93.9527 99.3175 93.103 97.3666 91.2791C95.4156 89.4553 94.386 86.7201 94.2777 83.0737L93.8524 68.752L97.4499 68.6167L97.8709 82.7944C97.9543 85.6012 98.6268 87.6293 99.8884 88.8787C101.174 90.1272 102.944 90.709 105.198 90.6242C107.477 90.5385 109.208 89.8249 110.393 88.4835C111.602 87.1411 112.164 85.0665 112.081 82.2598L111.66 68.082L115.149 67.9507L115.575 82.2724C115.683 85.9188 114.818 88.7252 112.98 90.6917C111.165 92.6572 108.591 93.7027 105.257 93.8282Z" fill="black"/>
<path d="M95.8592 131.079L95.0813 105.891L104.906 106.14C107.113 106.196 109.008 106.592 110.589 107.327C112.17 108.062 113.4 109.1 114.281 110.441C115.161 111.781 115.63 113.363 115.686 115.186C115.742 117.009 115.371 118.57 114.572 119.868C113.772 121.142 112.603 122.107 111.065 122.764C109.527 123.42 107.655 123.72 105.447 123.664L97.6018 123.465L99.1702 121.851L99.458 131.17L95.8592 131.079ZM112.702 131.506L106.014 122.204L109.864 122.302L116.624 131.605L112.702 131.506ZM99.1813 122.211L97.5074 120.406L105.245 120.603C107.548 120.661 109.272 120.213 110.418 119.26C111.586 118.282 112.143 116.894 112.087 115.095C112.032 113.296 111.389 111.889 110.159 110.876C108.953 109.862 107.198 109.326 104.895 109.268L97.1573 109.072L98.7213 107.314L99.1813 122.211Z" fill="black"/>
<path d="M152.86 130.802C150.942 130.706 149.094 130.326 147.316 129.663C145.536 128.976 144.12 128.14 143.067 127.155L144.258 124.417C145.258 125.304 146.515 126.06 148.029 126.686C149.542 127.312 151.102 127.666 152.708 127.746C154.17 127.82 155.348 127.711 156.243 127.422C157.137 127.132 157.785 126.71 158.188 126.156C158.59 125.579 158.772 124.918 158.735 124.175C158.693 123.312 158.37 122.603 157.769 122.047C157.191 121.492 156.44 121.035 155.513 120.678C154.61 120.298 153.613 119.961 152.522 119.667C151.432 119.373 150.327 119.043 149.209 118.676C148.114 118.286 147.098 117.817 146.162 117.267C145.251 116.72 144.498 116.012 143.905 115.146C143.311 114.255 142.981 113.139 142.914 111.796C142.85 110.502 143.126 109.332 143.744 108.287C144.384 107.219 145.396 106.397 146.778 105.821C148.183 105.222 149.988 104.978 152.193 105.089C153.655 105.162 155.115 105.427 156.572 105.883C158.029 106.338 159.303 106.952 160.393 107.724L159.35 110.541C158.235 109.768 157.071 109.195 155.857 108.824C154.642 108.428 153.471 108.202 152.345 108.145C150.93 108.074 149.777 108.196 148.884 108.509C147.991 108.823 147.343 109.269 146.942 109.846C146.564 110.425 146.394 111.086 146.43 111.829C146.474 112.716 146.785 113.437 147.363 113.992C147.964 114.548 148.716 115.005 149.618 115.361C150.545 115.718 151.554 116.056 152.646 116.374C153.736 116.667 154.828 116.997 155.923 117.363C157.041 117.73 158.056 118.187 158.967 118.735C159.903 119.284 160.668 119.992 161.261 120.859C161.854 121.726 162.183 122.818 162.248 124.137C162.311 125.407 162.023 126.576 161.382 127.644C160.741 128.688 159.706 129.508 158.277 130.106C156.871 130.681 155.065 130.913 152.86 130.802Z" fill="black"/>
<circle cx="55" cy="48" r="3" fill="black"/>
<circle cx="154" cy="48" r="3" fill="black"/>
<circle cx="55" cy="153" r="3" fill="black"/>
<circle cx="154" cy="153" r="3" fill="black"/>
<path d="M207.132 99.2375C208.196 100.037 208.197 101.633 207.134 102.433L179.294 123.413C177.977 124.406 176.092 123.467 176.091 121.817L176.065 79.892C176.064 78.2423 177.948 77.3008 179.266 78.292L207.132 99.2375Z" fill="black"/>
<path d="M1.66971 102.469C0.622885 101.647 0.654928 100.052 1.73388 99.2733L30.0024 78.8741C31.3401 77.9087 33.2054 78.8867 33.1723 80.536L32.3305 122.453C32.2973 124.102 30.3942 125.005 29.0964 123.986L1.66971 102.469Z" fill="black"/>
<line x1="79.5" y1="49" x2="79.5" y2="153" stroke="black"/>
<line x1="129.5" y1="49.0048" x2="128.5" y2="153.005" stroke="black"/>
<line x1="57" y1="152.5" x2="152" y2="152.5" stroke="black"/>
<line x1="55" y1="48.5" x2="154" y2="48.5" stroke="black"/>
<path d="M102.422 1.15969C103.223 0.0978339 104.819 0.100323 105.617 1.16467L126.537 29.0505C127.527 30.3701 126.583 32.2532 124.934 32.2507L83.0084 32.1853C81.3587 32.1827 80.4213 30.2967 81.4154 28.9802L102.422 1.15969Z" fill="black"/>
<path d="M143.546 92.2077L142.268 67.0401L152.074 67.6972C154.277 67.8449 156.175 68.3184 157.767 69.1178C159.358 69.9172 160.607 71.0041 161.512 72.3786C162.417 73.7531 162.916 75.3511 163.008 77.1728C163.1 78.9944 162.761 80.5363 161.99 81.7985C161.217 83.0366 160.071 83.9511 158.549 84.5419C157.028 85.1327 155.166 85.3543 152.963 85.2067L145.133 84.682L146.665 83.1364L147.138 92.4484L143.546 92.2077ZM160.356 93.3342L153.499 83.7735L157.342 84.0311L164.271 93.5966L160.356 93.3342ZM146.683 83.496L144.977 81.6259L152.7 82.1434C154.999 82.2975 156.71 81.9224 157.834 81.0183C158.98 80.0918 159.507 78.7298 159.416 76.9321C159.325 75.1344 158.656 73.7041 157.408 72.6411C156.185 71.5797 154.424 70.972 152.125 70.818L144.403 70.3005L145.928 68.6111L146.683 83.496Z" fill="black"/>
<path d="M105.589 201.324C104.778 202.379 103.183 202.363 102.393 201.292L81.7151 173.227C80.7365 171.899 81.696 170.024 83.3456 170.041L125.269 170.467C126.918 170.484 127.84 172.378 126.834 173.686L105.589 201.324Z" fill="black"/>
</svg>
